<svg xmlns="http://www.w3.org/2000/svg" xmlns:xlink="http://www.w3.org/1999/xlink" width="381" height="322"><defs><path id="a" d="M568.88 223.6c14.8-13.28 62.96-27.36 131.6-27.36v.32c68.64 0 116.8 14.08 131.6 27.04zm131.6-67.04a11.84 11.84 0 1 1 0 23.68 11.84 11.84 0 0 1 0-23.68zm24.48 24.4a27.52 27.52 0 0 0 3.12-12.48 28 28 0 1 0-56 0c.04 4.35 1.1 8.63 3.12 12.48-66.88 3.36-128 20.48-128 50.32a8 8 0 0 0 8.8 8h288.96a8 8 0 0 0 8-8c0-29.84-60.88-46.96-128-50.32z"/><path id="b" d="M836.96 413.96c0 14.64-5.6 32-32 32h-208c-12.4 0-33.2-4.16-33.2-32V265h273.2zm45.6-134.08h-29.6V257a8 8 0 0 0-8-8H556a8 8 0 0 0-8 8v22.88h-30a8 8 0 0 0 0 16h30.08v118.08c0 35.44 25.36 48 49.2 48h207.2c35.44 0 48-24.8 48-48V295.88h30.08a8 8 0 0 0 0-16z"/></defs><use fill="#fff" xlink:href="#a" transform="translate(-510 -140)"/><use fill="#fff" xlink:href="#b" transform="translate(-510 -140)"/><text dominant-baseline="text-before-edge" font-family="Helvetica, Arial, sans-serif" transform="translate(78 120)" fill="#fff" font-size="130"><tspan>404</tspan></text></svg>