<svg xmlns="http://www.w3.org/2000/svg" xmlns:xlink="http://www.w3.org/1999/xlink" width="25" height="21" viewBox="0 0 25 21"><defs><path id="28bua" d="M17 451.97c0-3.33 4.7-6.03 10.5-6.03s10.5 2.7 10.5 6.03S33.3 458 27.5 458 17 455.3 17 451.97z"/><path id="28buc" d="M15 447a1 1 0 0 1 1-1h23a1 1 0 0 1 0 2H16a1 1 0 0 1-1-1z"/><path id="28bud" d="M23 458a1 1 0 0 1 1-1h7a1 1 0 0 1 0 2h-7a1 1 0 0 1-1-1z"/><path id="28bue" d="M23 439a1 1 0 0 1 2 0v4a1 1 0 0 1-2 0z"/><path id="28buf" d="M27 441a1 1 0 0 1 2 0v2a1 1 0 0 1-2 0z"/><path id="28bug" d="M31 440a1 1 0 0 1 2 0v3a1 1 0 0 1-2 0z"/><clipPath id="28bub"><use fill="#fff" xlink:href="#28bua"/></clipPath></defs><g><g transform="translate(-15 -438)"><g><use fill="#fff" fill-opacity="0" stroke="#686868" stroke-miterlimit="50" stroke-width="4" clip-path="url(&quot;#28bub&quot;)" xlink:href="#28bua"/></g><g><use fill="#686868" xlink:href="#28buc"/></g><g><use fill="#686868" xlink:href="#28bud"/></g><g><use fill="#686868" xlink:href="#28bue"/></g><g><use fill="#686868" xlink:href="#28buf"/></g><g><use fill="#686868" xlink:href="#28bug"/></g></g></g></svg>