<svg xmlns="http://www.w3.org/2000/svg" xmlns:xlink="http://www.w3.org/1999/xlink" width="47" height="47"><defs><path id="a" d="M35 247.5a22.5 22.5 0 1 1 45 0 22.5 22.5 0 0 1-45 0z"/><path id="b" d="M46.25 238.66h3.92l1.45 15.27h12.52l3-8.63H51.47"/><path id="c" d="M51.88 258.35a2.01 2.01 0 1 1 4.02 0 2.01 2.01 0 0 1-4.02 0z"/><path id="d" d="M59.11 258.35a2.01 2.01 0 1 1 4.02 0 2.01 2.01 0 0 1-4.02 0z"/></defs><use fill="#fff" fill-opacity="0" stroke="#fff" stroke-miterlimit="50" stroke-width="2" xlink:href="#a" transform="translate(-34 -224)"/><use fill="#fff" fill-opacity="0" stroke="#fff" stroke-linecap="round" stroke-miterlimit="50" stroke-width="2" xlink:href="#b" transform="translate(-34 -224)"/><use fill="#fff" xlink:href="#c" transform="translate(-34 -224)"/><use fill="#fff" xlink:href="#d" transform="translate(-34 -224)"/></svg>