<svg xmlns="http://www.w3.org/2000/svg" xmlns:xlink="http://www.w3.org/1999/xlink" height="25" width="60"><defs><path id="a" d="M76.03 368.43h22.95v12.53a3 3 0 0 1-3 3H79.03a3 3 0 0 1-3-3z"/><path id="b" d="M76 370.51v-6.48h22.94v6.48z"/><path id="c" d="M74 371.45a1 1 0 0 1 1-1h2a1 1 0 0 1 0 2h-2a1 1 0 0 1-1-1z"/><path id="d" d="M90.29 360.57a1 1 0 0 1 1-1H111V384H93.29a3 3 0 0 1-3-3z"/><path id="e" d="M59 373h13v8a3 3 0 0 1-3 3h-7a3 3 0 0 1-3-3z"/><path id="f" d="M60 377.996l-7.734-.55-.496-2.57 8.23.808z"/><path id="h" d="M80.4 373.48a1 1 0 0 1 2 0v4.75a1 1 0 0 1-2 0z"/><path id="l" d="M94.86 366.29a1 1 0 0 1 2 0v11.57a1 1 0 0 1-2 0z"/><clipPath id="g"><use fill="#fff" xlink:href="#a"/></clipPath><clipPath id="i"><use fill="#fff" xlink:href="#b"/></clipPath><clipPath id="j"><use fill="#fff" xlink:href="#c"/></clipPath><clipPath id="k"><use fill="#fff" xlink:href="#d"/></clipPath><clipPath id="m"><use fill="#fff" xlink:href="#e"/></clipPath><clipPath id="n"><use fill="#fff" xlink:href="#f"/></clipPath></defs><g transform="translate(-51 -359)"><use clip-path="url(&quot;#g&quot;)" stroke-width="4" stroke-miterlimit="50" stroke="#3b4695" fill="#fff" fill-opacity="0" xlink:href="#a"/><use fill="#3b4695" xlink:href="#h"/><use clip-path="url(&quot;#i&quot;)" stroke-width="4" stroke-miterlimit="50" stroke="#3b4695" fill="#fff" fill-opacity="0" xlink:href="#b"/><use clip-path="url(&quot;#j&quot;)" stroke-width="2" stroke-miterlimit="50" stroke="#3b4695" fill="#fff" fill-opacity="0" xlink:href="#c"/><use fill="#fff" xlink:href="#d"/><use clip-path="url(&quot;#k&quot;)" stroke-width="4" stroke-miterlimit="50" stroke="#3b4695" fill="#fff" fill-opacity="0" xlink:href="#d"/><use fill="#3b4695" xlink:href="#l"/><g stroke-width="4" stroke-miterlimit="50" stroke="#3b4695" fill="#fff" fill-opacity="0"><use clip-path="url(&quot;#m&quot;)" xlink:href="#e"/><use clip-path="url(&quot;#n&quot;)" xlink:href="#f"/></g></g></svg>