<svg width="9" height="17" xmlns="http://www.w3.org/2000/svg" xmlns:xlink="http://www.w3.org/1999/xlink"><defs><path d="M618.268 3068.825c0-1.34-.005-2.68.005-4.021.002-.226-.062-.297-.288-.288-.418.017-.837-.001-1.255.008-.17.005-.232-.042-.23-.222a138.6 138.6 0 0 0 0-2.51c0-.16.048-.213.21-.21.428.01.857-.012 1.284.01.247.012.298-.076.293-.306a42.201 42.201 0 0 1 0-1.91c.016-.778.225-1.504.688-2.136.586-.801 1.42-1.167 2.38-1.21.988-.044 1.978-.02 2.966-.03.138-.002.179.048.178.182-.004.846-.005 1.692.001 2.538.001.15-.048.196-.196.194-.475-.007-.95-.004-1.426-.002-.632.002-1.011.327-1.05.953-.033.503-.01 1.008-.02 1.511-.005.18.101.167.22.167.722 0 1.445.007 2.168-.005.212-.004.282.045.257.268-.09.841-.169 1.683-.24 2.526-.017.19-.104.226-.275.223-.57-.008-1.14-.006-1.71-.002-.41.002-.37-.06-.37.358-.002 2.624-.006 5.248.005 7.872.002.277-.07.345-.343.34a76.896 76.896 0 0 0-2.938.001c-.276.006-.321-.088-.32-.334.011-1.322.006-2.643.006-3.965" id="a"/></defs><use xlink:href="#a" fill="#fff" transform="translate(-616 -3056)"/></svg>