<svg xmlns="http://www.w3.org/2000/svg" xmlns:xlink="http://www.w3.org/1999/xlink" width="42" height="42" viewBox="0 0 42 42"><defs><path id="hezha" d="M1233 739a20 20 0 1 1 40 0 20 20 0 0 1-40 0z"/><path id="hezhb" d="M1239 739a14 14 0 1 1 28 0 14 14 0 0 1-28 0z"/><path id="hezhc" d="M1242 739a11 11 0 1 1 22 0 11 11 0 0 1-22 0z"/><path id="hezhd" d="M1245 739a8 8 0 1 1 16 0 8 8 0 0 1-16 0z"/><path id="hezhe" d="M1248 739a5 5 0 1 1 10 0 5 5 0 0 1-10 0z"/><path id="hezhf" d="M1243 748l20-18"/><path id="hezhg" d="M1244 729.5l18.5 19.5"/><path id="hezhh" d="M1239.5 739h27"/><path id="hezhi" d="M1253 725.5v27"/></defs><g><g transform="translate(-1232 -718)"><g><use fill="#fff" fill-opacity="0" stroke="#da0148" stroke-miterlimit="50" xlink:href="#hezha"/></g><g><g><use fill="#fff" fill-opacity="0" stroke="#da0148" stroke-miterlimit="50" xlink:href="#hezhb"/></g><g><use fill="#fff" fill-opacity="0" stroke="#da0148" stroke-miterlimit="50" xlink:href="#hezhc"/></g><g><use fill="#fff" fill-opacity="0" stroke="#da0148" stroke-miterlimit="50" xlink:href="#hezhd"/></g><g><use fill="#fff" fill-opacity="0" stroke="#da0148" stroke-miterlimit="50" xlink:href="#hezhe"/></g><g><use fill="#fff" fill-opacity="0" stroke="#da0148" stroke-linecap="square" stroke-miterlimit="50" xlink:href="#hezhf"/></g><g><use fill="#fff" fill-opacity="0" stroke="#da0148" stroke-linecap="square" stroke-miterlimit="50" xlink:href="#hezhg"/></g><g><use fill="#fff" fill-opacity="0" stroke="#da0148" stroke-linecap="square" stroke-miterlimit="50" xlink:href="#hezhh"/></g><g><use fill="#fff" fill-opacity="0" stroke="#da0148" stroke-linecap="square" stroke-miterlimit="50" xlink:href="#hezhi"/></g></g></g></g></svg>