<svg xmlns="http://www.w3.org/2000/svg" xmlns:xlink="http://www.w3.org/1999/xlink" width="42" height="42"><defs><path id="a" d="M1138 740.5c0-2.49 5.82-4.5 13-4.5s13 2.01 13 4.5-5.82 4.5-13 4.5-13-2.01-13-4.5z"/><path id="b" d="M1138 737.5c0-2.49 5.82-4.5 13-4.5s13 2.01 13 4.5-5.82 4.5-13 4.5-13-2.01-13-4.5z"/><path id="c" d="M1148 737c0-.55 1.34-1 3-1s3 .45 3 1-1.34 1-3 1-3-.45-3-1z"/><path id="d" d="M1131 739a20 20 0 1 1 40 0 20 20 0 0 1-40 0z"/></defs><g fill="#fff" transform="translate(-1130 -718)"><use xlink:href="#a"/><use fill-opacity="0" stroke="#da0148" stroke-miterlimit="50" xlink:href="#a"/></g><g fill="#fff" transform="translate(-1130 -718)"><use xlink:href="#b"/><use fill-opacity="0" stroke="#da0148" stroke-miterlimit="50" xlink:href="#b"/></g><g transform="translate(-1130 -718)"><use fill="#da0148" xlink:href="#c"/><use fill="#fff" fill-opacity="0" stroke="#da0148" stroke-miterlimit="50" xlink:href="#c"/></g><use fill="#fff" fill-opacity="0" stroke="#da0148" stroke-miterlimit="50" xlink:href="#d" transform="translate(-1130 -718)"/></svg>