<svg xmlns="http://www.w3.org/2000/svg" xmlns:xlink="http://www.w3.org/1999/xlink" width="42" height="42" viewBox="0 0 42 42"><defs><path id="rdkxa" d="M1335 739a20 20 0 1 1 40 0 20 20 0 0 1-40 0z"/><path id="rdkxb" d="M1345 728c0-1.1 3.36-2 7.5-2 4.14 0 7.5.9 7.5 2s-3.36 2-7.5 2c-4.14 0-7.5-.9-7.5-2z"/><path id="rdkxc" d="M1344.5 755.5v-3h5s.96-1.43 1.5-4c.54-2.57.5-5.5.5-5.5l-6.5-8v-7"/><path id="rdkxd" d="M1368 727.5l-.5 8.5-7 7.5v9h-5s-.96-1.43-1.5-4c-.54-2.57 0-5.5 0-5.5l6-8v-7"/><path id="rdkxe" d="M1362.5 728.5v4"/><path id="rdkxf" d="M1364.5 728.5v4"/></defs><g><g transform="translate(-1334 -718)"><g><use fill="#fff" fill-opacity="0" stroke="#da0148" stroke-miterlimit="50" xlink:href="#rdkxa"/></g><g><use fill="#fff" fill-opacity="0" stroke="#da0148" stroke-miterlimit="50" xlink:href="#rdkxb"/></g><g><use fill="#fff" fill-opacity="0" stroke="#da0148" stroke-miterlimit="50" xlink:href="#rdkxc"/></g><g><use fill="#fff" fill-opacity="0" stroke="#da0148" stroke-miterlimit="50" xlink:href="#rdkxd"/></g><g><use fill="#fff" fill-opacity="0" stroke="#da0148" stroke-linecap="square" stroke-miterlimit="50" xlink:href="#rdkxe"/></g><g><use fill="#fff" fill-opacity="0" stroke="#da0148" stroke-linecap="square" stroke-miterlimit="50" xlink:href="#rdkxf"/></g></g></g></svg>