<svg xmlns="http://www.w3.org/2000/svg" xmlns:xlink="http://www.w3.org/1999/xlink" width="42" height="42" viewBox="0 0 42 42"><defs><path id="nn9da" d="M1182 739a20 20 0 1 1 40 0 20 20 0 0 1-40 0z"/><path id="nn9db" d="M1188 739a14 14 0 1 1 28 0 14 14 0 0 1-28 0z"/><path id="nn9dc" d="M1191 739a11 11 0 1 1 22 0 11 11 0 0 1-22 0z"/><path id="nn9dd" d="M1194 743.5c0-1.93 3.58-3.5 8-3.5s8 1.57 8 3.5-3.58 3.5-8 3.5-8-1.57-8-3.5z"/><path id="nn9de" d="M1194 734.5c0 1.93 3.58 3.5 8 3.5s8-1.57 8-3.5-3.58-3.5-8-3.5-8 1.57-8 3.5z"/><path id="nn9df" d="M1194.5 731.5l15 15.5"/></defs><g><g transform="translate(-1181 -718)"><g><use fill="#fff" fill-opacity="0" stroke="#da0148" stroke-miterlimit="50" xlink:href="#nn9da"/></g><g><g><use fill="#fff" fill-opacity="0" stroke="#da0148" stroke-miterlimit="50" xlink:href="#nn9db"/></g><g><use fill="#fff" fill-opacity="0" stroke="#da0148" stroke-miterlimit="50" xlink:href="#nn9dc"/></g><g><use fill="#fff" fill-opacity="0" stroke="#da0148" stroke-miterlimit="50" xlink:href="#nn9dd"/></g><g><use fill="#fff" fill-opacity="0" stroke="#da0148" stroke-miterlimit="50" xlink:href="#nn9de"/></g><g><use fill="#fff" fill-opacity="0" stroke="#da0148" stroke-linecap="square" stroke-miterlimit="50" xlink:href="#nn9df"/></g></g></g></g></svg>