<svg xmlns="http://www.w3.org/2000/svg" xmlns:xlink="http://www.w3.org/1999/xlink" width="42" height="42" viewBox="0 0 42 42"><defs><path id="4o8oa" d="M1284 739a20 20 0 1 1 40 0 20 20 0 0 1-40 0z"/><path id="4o8ob" d="M1292.5 749s1.38 2 2.5 2 2-2 2-2 1.25 2 2.5 2 2.5-2 2.5-2 .87 2 2 2 2.5-2 2.5-2 .87 2 2 2 2.5-2 2.5-2 1.25 2 2.5 2 2.5-2 2.5-2"/><path id="4o8oc" d="M1290 738c0-6.08 1.05-11 2.33-11 1.3 0 2.34 4.92 2.34 11s-1.05 11-2.33 11c-1.3 0-2.34-4.92-2.34-11z"/><path id="4o8od" d="M1294.67 738c0-6.08 1.05-11 2.33-11 1.3 0 2.34 4.92 2.34 11s-1.05 11-2.34 11c-1.28 0-2.33-4.92-2.33-11z"/><path id="4o8oe" d="M1299.33 738c0-6.08 1.05-11 2.33-11 1.3 0 2.34 4.92 2.34 11s-1.05 11-2.33 11c-1.3 0-2.34-4.92-2.34-11z"/><path id="4o8of" d="M1304 738c0-6.08 1.05-11 2.33-11 1.3 0 2.34 4.92 2.34 11s-1.05 11-2.33 11c-1.3 0-2.34-4.92-2.34-11z"/><path id="4o8og" d="M1308.67 738c0-6.08 1.05-11 2.33-11 1.3 0 2.34 4.92 2.34 11s-1.05 11-2.34 11c-1.28 0-2.33-4.92-2.33-11z"/><path id="4o8oh" d="M1313.33 738c0-6.08 1.05-11 2.33-11 1.3 0 2.34 4.92 2.34 11s-1.05 11-2.33 11c-1.3 0-2.34-4.92-2.34-11z"/></defs><g><g transform="translate(-1283 -718)"><g><use fill="#fff" fill-opacity="0" stroke="#da0148" stroke-miterlimit="50" xlink:href="#4o8oa"/></g><g><use fill="#fff" fill-opacity="0" stroke="#db0149" stroke-miterlimit="50" xlink:href="#4o8ob"/></g><g><use fill="#fff" xlink:href="#4o8oc"/><use fill="#fff" fill-opacity="0" stroke="#da0148" stroke-miterlimit="50" xlink:href="#4o8oc"/></g><g><use fill="#fff" xlink:href="#4o8od"/><use fill="#fff" fill-opacity="0" stroke="#da0148" stroke-miterlimit="50" xlink:href="#4o8od"/></g><g><use fill="#fff" xlink:href="#4o8oe"/><use fill="#fff" fill-opacity="0" stroke="#da0148" stroke-miterlimit="50" xlink:href="#4o8oe"/></g><g><use fill="#fff" xlink:href="#4o8of"/><use fill="#fff" fill-opacity="0" stroke="#da0148" stroke-miterlimit="50" xlink:href="#4o8of"/></g><g><use fill="#fff" xlink:href="#4o8og"/><use fill="#fff" fill-opacity="0" stroke="#da0148" stroke-miterlimit="50" xlink:href="#4o8og"/></g><g><use fill="#fff" xlink:href="#4o8oh"/><use fill="#fff" fill-opacity="0" stroke="#da0148" stroke-miterlimit="50" xlink:href="#4o8oh"/></g></g></g></svg>