<svg xmlns="http://www.w3.org/2000/svg" xmlns:xlink="http://www.w3.org/1999/xlink" width="42" height="42" viewBox="0 0 42 42"><defs><path id="is4qa" d="M1392 752c0-1.1.9-2 2-2h24a2 2 0 0 1 2 2v2h-28z"/><path id="is4qb" d="M1386 739a20 20 0 1 1 40 0 20 20 0 0 1-40 0z"/><path id="is4qc" d="M1404 747a6 6 0 1 1 12 0 6 6 0 0 1-12 0z"/><path id="is4qd" d="M1407 747a3 3 0 1 1 6 0 3 3 0 0 1-6 0z"/><path id="is4qe" d="M1391 745a8 8 0 1 1 16 0 8 8 0 0 1-16 0z"/><path id="is4qf" d="M1394 745a5 5 0 1 1 10 0 5 5 0 0 1-10 0z"/><path id="is4qh" d="M1392 733.5v-3h28v3"/><clipPath id="is4qg"><use fill="#fff" xlink:href="#is4qa"/></clipPath></defs><g><g transform="translate(-1385 -718)"><g><use fill="#fff" fill-opacity="0" stroke="#da0148" stroke-miterlimit="50" xlink:href="#is4qb"/></g><g><use fill="#fff" xlink:href="#is4qc"/><use fill="#fff" fill-opacity="0" stroke="#da0148" stroke-miterlimit="50" xlink:href="#is4qc"/></g><g><use fill="#fff" xlink:href="#is4qd"/><use fill="#fff" fill-opacity="0" stroke="#da0148" stroke-miterlimit="50" xlink:href="#is4qd"/></g><g><use fill="#fff" xlink:href="#is4qe"/><use fill="#fff" fill-opacity="0" stroke="#da0148" stroke-miterlimit="50" xlink:href="#is4qe"/></g><g><use fill="#fff" xlink:href="#is4qf"/><use fill="#fff" fill-opacity="0" stroke="#da0148" stroke-miterlimit="50" xlink:href="#is4qf"/></g><g><use fill="#fff" xlink:href="#is4qa"/><use fill="#fff" fill-opacity="0" stroke="#da0148" stroke-miterlimit="50" stroke-width="2" clip-path="url(&quot;#is4qg&quot;)" xlink:href="#is4qa"/></g><g><use fill="#fff" fill-opacity="0" stroke="#da0148" stroke-linecap="round" stroke-miterlimit="50" xlink:href="#is4qh"/></g></g></g></svg>