<svg xmlns="http://www.w3.org/2000/svg" xmlns:xlink="http://www.w3.org/1999/xlink" width="42" height="42"><defs><path id="a" d="M1087 743.5c0-3.59 5.82-6.5 13-6.5s13 2.91 13 6.5-5.82 6.5-13 6.5-13-2.91-13-6.5z"/><path id="b" d="M1091 741.5c0-3.04 4.03-5.5 9-5.5s9 2.46 9 5.5-4.03 5.5-9 5.5-9-2.46-9-5.5z"/><path id="c" d="M1091 739.5c0-2.49 4.03-4.5 9-4.5s9 2.01 9 4.5-4.03 4.5-9 4.5-9-2.01-9-4.5z"/><path id="d" d="M1101 732c0-2.76-.45-5-1-5s-1 2.24-1 5 .45 5 1 5 1-2.24 1-5z"/><path id="e" d="M1106.17 733.34c1.34-2.41 2.04-4.59 1.55-4.85-.48-.27-1.96 1.47-3.3 3.89-1.33 2.41-2.03 4.59-1.54 4.85.48.27 1.96-1.47 3.3-3.89z"/><path id="f" d="M1110.09 736.8c2.08-1.82 3.48-3.62 3.11-4.04-.36-.42-2.34.71-4.43 2.53-2.08 1.8-3.48 3.61-3.11 4.03.36.42 2.34-.71 4.43-2.53z"/><path id="g" d="M1090.17 733.34c1.34-2.41 2.04-4.59 1.55-4.85-.48-.27-1.96 1.47-3.3 3.89-1.33 2.41-2.03 4.59-1.54 4.85.48.27 1.96-1.47 3.3-3.89z"/><path id="h" d="M1094.09 736.8c2.08-1.82 3.48-3.62 3.11-4.04-.36-.42-2.34.71-4.43 2.53-2.08 1.8-3.48 3.61-3.11 4.03.36.42 2.34-.71 4.43-2.53z"/><path id="i" d="M1080 739a20 20 0 1 1 40 0 20 20 0 0 1-40 0z"/></defs><use fill="#fff" fill-opacity="0" stroke="#da0148" stroke-miterlimit="50" xlink:href="#a" transform="translate(-1079 -718)"/><g fill="#fff" transform="translate(-1079 -718)"><use xlink:href="#b"/><use fill-opacity="0" stroke="#da0148" stroke-miterlimit="50" xlink:href="#b"/></g><g fill="#fff" transform="translate(-1079 -718)"><use xlink:href="#c"/><use fill-opacity="0" stroke="#da0148" stroke-miterlimit="50" xlink:href="#c"/></g><g fill="#fff" transform="translate(-1079 -718)"><use xlink:href="#d"/><use fill-opacity="0" stroke="#da0148" stroke-miterlimit="50" xlink:href="#d"/></g><g fill="#fff"><g transform="translate(-1079 -718)"><use xlink:href="#e"/><use fill-opacity="0" stroke="#da0148" stroke-miterlimit="50" xlink:href="#e"/></g><g transform="translate(-1079 -718)"><use xlink:href="#f"/><use fill-opacity="0" stroke="#da0148" stroke-miterlimit="50" xlink:href="#f"/></g></g><g fill="#fff"><g transform="matrix(-1 0 0 1 1105 -718)"><use xlink:href="#g"/><use fill-opacity="0" stroke="#da0148" stroke-miterlimit="50" xlink:href="#g"/></g><g transform="matrix(-1 0 0 1 1105 -718)"><use xlink:href="#h"/><use fill-opacity="0" stroke="#da0148" stroke-miterlimit="50" xlink:href="#h"/></g></g><use fill="#fff" fill-opacity="0" stroke="#da0148" stroke-miterlimit="50" xlink:href="#i" transform="translate(-1079 -718)"/></svg>