<svg width="11" height="19" xmlns="http://www.w3.org/2000/svg" xmlns:xlink="http://www.w3.org/1999/xlink"><defs><path d="M677.598 3068.075c-1.42-.152-2.7-.51-3.797-1.388-.136-.109-.276-.214-.4-.336-.48-.472-.528-1.012-.149-1.569.325-.476.87-.603 1.437-.33.11.053.214.12.315.19 2.043 1.437 4.85 1.477 6.9.065.203-.16.42-.29.672-.356.49-.128.946.056 1.209.494.3.5.296.989-.074 1.378a5.562 5.562 0 0 1-2.007 1.327c-.716.285-1.501.428-2.278.523.117.13.172.195.246.27 1.055 1.085 2.114 2.165 3.165 3.253.359.37.433.83.236 1.262-.216.47-.698.781-1.172.748-.3-.021-.533-.174-.741-.388-.796-.82-1.607-1.625-2.387-2.46-.227-.243-.336-.197-.536.014a163.93 163.93 0 0 1-2.434 2.5c-.367.371-.805.438-1.231.226-.453-.225-.742-.698-.72-1.174.016-.322.17-.568.386-.788 1.044-1.067 2.085-2.137 3.127-3.205.069-.071.133-.147.233-.256z" id="a"/><path d="M680.784 3059.645a2.266 2.266 0 0 0-2.277-2.268 2.269 2.269 0 0 0-2.282 2.295 2.266 2.266 0 0 0 2.294 2.25 2.26 2.26 0 0 0 2.265-2.277zm-2.314 4.663c-2.547-.009-4.635-2.117-4.62-4.664a4.664 4.664 0 0 1 4.676-4.644c2.576.007 4.645 2.112 4.632 4.714-.013 2.542-2.116 4.603-4.688 4.594z" id="b"/></defs><g transform="translate(-673 -3055)" fill="#fff"><use xlink:href="#a"/><use xlink:href="#b"/></g></svg>