<svg xmlns="http://www.w3.org/2000/svg" xmlns:xlink="http://www.w3.org/1999/xlink" width="14" height="14"><defs><path id="a" d="M35.29 272a3.2 3.2 0 0 1-1.08-.18 14.75 14.75 0 0 1-9.05-9.3 3.22 3.22 0 0 1 1.1-3.55l.7-.53a2.19 2.19 0 0 1 3.26.75l1.17 2.26c.29.57.2 1.26-.24 1.73l-.24.27a.85.85 0 0 0-.13.97c.4.76 1.02 1.39 1.8 1.78.31.16.7.11.96-.13l.27-.24a1.56 1.56 0 0 1 1.73-.23l2.27 1.16a2.18 2.18 0 0 1 .56 3.48l-.8.8a3.2 3.2 0 0 1-2.28.96z"/></defs><use fill="#f93d5e" xlink:href="#a" transform="translate(-25 -258)"/></svg>