<svg width="10" height="10" xmlns="http://www.w3.org/2000/svg" xmlns:xlink="http://www.w3.org/1999/xlink"><defs><path d="M82.349 34.001c-.261 0-.52-.044-.767-.132a10.537 10.537 0 0 1-6.47-6.644c-.3-.926.017-1.941.791-2.532l.493-.376a1.564 1.564 0 0 1 2.333.53l.834 1.619c.209.407.142.9-.167 1.238l-.17.188a.608.608 0 0 0-.094.69c.282.55.73.997 1.278 1.279a.62.62 0 0 0 .692-.094l.19-.173c.34-.304.83-.37 1.238-.167l1.62.834a1.56 1.56 0 0 1 .4 2.486l-.565.57a2.312 2.312 0 0 1-1.636.684z" id="a"/></defs><use xlink:href="#a" fill="#393939" transform="translate(-75 -24)"/></svg>