<svg xmlns="http://www.w3.org/2000/svg" xmlns:xlink="http://www.w3.org/1999/xlink" width="25" height="21" viewBox="0 0 25 21"><defs><path id="vbjha" d="M232 722.97c0-3.33 4.7-6.03 10.5-6.03s10.5 2.7 10.5 6.03-4.7 6.03-10.5 6.03-10.5-2.7-10.5-6.03z"/><path id="vbjhc" d="M230 718a1 1 0 0 1 1-1h23a1 1 0 0 1 0 2h-23a1 1 0 0 1-1-1z"/><path id="vbjhd" d="M238 729a1 1 0 0 1 1-1h7a1 1 0 0 1 0 2h-7a1 1 0 0 1-1-1z"/><path id="vbjhe" d="M238 710a1 1 0 0 1 2 0v4a1 1 0 0 1-2 0z"/><path id="vbjhf" d="M242 712a1 1 0 0 1 2 0v2a1 1 0 0 1-2 0z"/><path id="vbjhg" d="M246 711a1 1 0 0 1 2 0v3a1 1 0 0 1-2 0z"/><clipPath id="vbjhb"><use fill="#fff" xlink:href="#vbjha"/></clipPath></defs><g><g transform="translate(-230 -709)"><g><use fill="#fff" fill-opacity="0" stroke="#686868" stroke-miterlimit="50" stroke-width="4" clip-path="url(&quot;#vbjhb&quot;)" xlink:href="#vbjha"/></g><g><use fill="#686868" xlink:href="#vbjhc"/></g><g><use fill="#686868" xlink:href="#vbjhd"/></g><g><use fill="#686868" xlink:href="#vbjhe"/></g><g><use fill="#686868" xlink:href="#vbjhf"/></g><g><use fill="#686868" xlink:href="#vbjhg"/></g></g></g></svg>