<svg xmlns="http://www.w3.org/2000/svg" xmlns:xlink="http://www.w3.org/1999/xlink" width="22" height="22"><defs><path id="a" d="M371 719a11 11 0 1 1 22 0 11 11 0 0 1-22 0z"/><path id="c" d="M381 714a1 1 0 0 1 2 0v6a1 1 0 0 1-2 0z"/><path id="d" d="M381 720a1 1 0 0 1 1-1h4a1 1 0 0 1 0 2h-4a1 1 0 0 1-1-1z"/><clipPath id="b"><use fill="#fff" xlink:href="#a"/></clipPath></defs><use fill="#fff" fill-opacity="0" stroke="#686868" stroke-miterlimit="50" stroke-width="4" clip-path="url(&quot;#b&quot;)" xlink:href="#a" transform="translate(-371 -708)"/><use fill="#686868" xlink:href="#c" transform="translate(-371 -708)"/><use fill="#686868" xlink:href="#d" transform="translate(-371 -708)"/></svg>