<svg width="20" height="13" xmlns="http://www.w3.org/2000/svg" xmlns:xlink="http://www.w3.org/1999/xlink"><defs><path d="M567.541 3059.84c.14-.484 0-.84-.662-.84h-2.188c-.556 0-.812.308-.952.647 0 0-1.112 2.835-2.688 4.677-.51.533-.742.703-1.02.703-.14 0-.34-.17-.34-.654v-4.532c0-.582-.162-.841-.626-.841h-3.438a.538.538 0 0 0-.557.526c0 .551.788.678.87 2.23v3.368c0 .738-.128.872-.406.872-.742 0-2.546-2.848-3.617-6.107-.21-.633-.42-.889-.979-.889h-2.188c-.625 0-.75.308-.75.647 0 .606.742 3.61 3.454 7.585 1.808 2.714 4.355 4.186 6.673 4.186 1.391 0 1.563-.327 1.563-.89v-2.051c0-.654.132-.784.572-.784.325 0 .881.17 2.18 1.478 1.483 1.551 1.728 2.247 2.562 2.247h2.188c.625 0 .938-.327.757-.972-.197-.643-.905-1.575-1.845-2.68-.51-.63-1.275-1.31-1.507-1.649-.324-.436-.232-.63 0-1.017 0 0 2.666-3.926 2.944-5.26" id="a"/></defs><use xlink:href="#a" fill="#fffffe" transform="translate(-548 -3059)"/></svg>